<svg width="713" height="325" viewBox="0 0 713 325" fill="none" xmlns="http://www.w3.org/2000/svg">
<rect width="713" height="325" fill="#F5F5F5"/>
<line x1="349.5" y1="51" x2="349.5" y2="108" stroke="black"/>
<line x1="40" y1="107.5" x2="675" y2="107.5" stroke="black"/>
<path d="M369.5 183.887L372.387 181L369.5 178.113L366.613 181L369.5 183.887ZM369 108V181H370V108H369Z" fill="black"/>
<path d="M516.579 183.872L519.385 180.907L516.421 178.101L513.614 181.065L516.579 183.872ZM514 108L516 181L517 180.973L515 107.973L514 108Z" fill="black"/>
<path d="M207.5 183.887L210.387 181L207.5 178.113L204.613 181L207.5 183.887ZM207 108V181H208V108H207Z" fill="black"/>
<path d="M40.5 183.887L43.3868 181L40.5 178.113L37.6132 181L40.5 183.887ZM40 108L40 181H41L41 108H40Z" fill="black"/>
<path d="M675.5 183.887L678.387 181L675.5 178.113L672.613 181L675.5 183.887ZM675 108V181H676V108H675Z" fill="black"/>
<path d="M207 285.887L209.887 283L207 280.113L204.113 283L207 285.887ZM206.5 220V283H207.5V220H206.5Z" fill="black"/>
<ellipse cx="349" cy="25.5" rx="53" ry="25.5" fill="#D9D9D9"/>
<path d="M311.29 38V19.0909H313.58V27.5114H323.662V19.0909H325.952V38H323.662V29.5426H313.58V38H311.29ZM346.49 28.5455C346.49 30.5398 346.13 32.2633 345.41 33.7159C344.69 35.1686 343.702 36.2888 342.446 37.0767C341.191 37.8646 339.757 38.2585 338.144 38.2585C336.531 38.2585 335.097 37.8646 333.841 37.0767C332.586 36.2888 331.598 35.1686 330.877 33.7159C330.157 32.2633 329.797 30.5398 329.797 28.5455C329.797 26.5511 330.157 24.8277 330.877 23.375C331.598 21.9223 332.586 20.8021 333.841 20.0142C335.097 19.2263 336.531 18.8324 338.144 18.8324C339.757 18.8324 341.191 19.2263 342.446 20.0142C343.702 20.8021 344.69 21.9223 345.41 23.375C346.13 24.8277 346.49 26.5511 346.49 28.5455ZM344.275 28.5455C344.275 26.9081 344.001 25.5263 343.453 24.3999C342.911 23.2734 342.176 22.4209 341.246 21.8423C340.323 21.2637 339.289 20.9744 338.144 20.9744C336.999 20.9744 335.962 21.2637 335.032 21.8423C334.109 22.4209 333.373 23.2734 332.826 24.3999C332.284 25.5263 332.013 26.9081 332.013 28.5455C332.013 30.1828 332.284 31.5646 332.826 32.6911C333.373 33.8175 334.109 34.67 335.032 35.2486C335.962 35.8272 336.999 36.1165 338.144 36.1165C339.289 36.1165 340.323 35.8272 341.246 35.2486C342.176 34.67 342.911 33.8175 343.453 32.6911C344.001 31.5646 344.275 30.1828 344.275 28.5455ZM350.341 19.0909H353.074L359.5 34.7869H359.721L366.147 19.0909H368.88V38H366.738V23.6335H366.554L360.645 38H358.576L352.667 23.6335H352.483V38H350.341V19.0909ZM373.471 38V19.0909H384.883V21.1222H375.761V27.5114H384.292V29.5426H375.761V35.9688H385.031V38H373.471Z" fill="black"/>
<ellipse cx="38.5" cy="202.5" rx="38.5" ry="19.5" fill="#D9D9D9"/>
<path d="M3.65057 207H2.35795L6.09659 196.818H7.36932L11.108 207H9.81534L6.77273 198.429H6.69318L3.65057 207ZM4.12784 203.023H9.33807V204.116H4.12784V203.023ZM12.6939 207V196.818H16.2536C16.9628 196.818 17.5478 196.941 18.0085 197.186C18.4692 197.428 18.8123 197.754 19.0376 198.165C19.263 198.573 19.3757 199.026 19.3757 199.523C19.3757 199.96 19.2978 200.321 19.142 200.607C18.9896 200.892 18.7874 201.117 18.5355 201.283C18.2869 201.448 18.0168 201.571 17.7251 201.651V201.75C18.0367 201.77 18.3499 201.879 18.6648 202.078C18.9796 202.277 19.2431 202.562 19.4553 202.933C19.6674 203.304 19.7734 203.759 19.7734 204.295C19.7734 204.806 19.6574 205.265 19.4254 205.673C19.1934 206.08 18.8272 206.403 18.3267 206.642C17.8262 206.881 17.175 207 16.3729 207H12.6939ZM13.9268 205.906H16.3729C17.1783 205.906 17.75 205.75 18.0881 205.439C18.4295 205.124 18.6001 204.743 18.6001 204.295C18.6001 203.951 18.5123 203.633 18.3366 203.341C18.161 203.046 17.9107 202.811 17.5859 202.635C17.2611 202.456 16.8767 202.366 16.4325 202.366H13.9268V205.906ZM13.9268 201.293H16.2138C16.585 201.293 16.9197 201.22 17.218 201.074C17.5196 200.928 17.7583 200.723 17.9339 200.457C18.1129 200.192 18.2024 199.881 18.2024 199.523C18.2024 199.075 18.0466 198.696 17.7351 198.384C17.4235 198.069 16.9297 197.912 16.2536 197.912H13.9268V201.293ZM30.3903 201.909C30.3903 202.983 30.1964 203.911 29.8086 204.693C29.4208 205.475 28.8889 206.079 28.2127 206.503C27.5366 206.927 26.7643 207.139 25.896 207.139C25.0276 207.139 24.2553 206.927 23.5792 206.503C22.9031 206.079 22.3711 205.475 21.9833 204.693C21.5955 203.911 21.4016 202.983 21.4016 201.909C21.4016 200.835 21.5955 199.907 21.9833 199.125C22.3711 198.343 22.9031 197.74 23.5792 197.315C24.2553 196.891 25.0276 196.679 25.896 196.679C26.7643 196.679 27.5366 196.891 28.2127 197.315C28.8889 197.74 29.4208 198.343 29.8086 199.125C30.1964 199.907 30.3903 200.835 30.3903 201.909ZM29.1971 201.909C29.1971 201.027 29.0496 200.283 28.7546 199.677C28.463 199.07 28.0669 198.611 27.5664 198.3C27.0692 197.988 26.5124 197.832 25.896 197.832C25.2795 197.832 24.721 197.988 24.2205 198.3C23.7234 198.611 23.3273 199.07 23.0323 199.677C22.7406 200.283 22.5948 201.027 22.5948 201.909C22.5948 202.791 22.7406 203.535 23.0323 204.141C23.3273 204.748 23.7234 205.207 24.2205 205.518C24.721 205.83 25.2795 205.986 25.896 205.986C26.5124 205.986 27.0692 205.83 27.5664 205.518C28.0669 205.207 28.463 204.748 28.7546 204.141C29.0496 203.535 29.1971 202.791 29.1971 201.909ZM39.1452 196.818H40.3782V203.56C40.3782 204.256 40.2141 204.877 39.886 205.424C39.5612 205.968 39.1022 206.397 38.5089 206.712C37.9156 207.023 37.2196 207.179 36.4208 207.179C35.622 207.179 34.926 207.023 34.3327 206.712C33.7395 206.397 33.2788 205.968 32.9506 205.424C32.6258 204.877 32.4634 204.256 32.4634 203.56V196.818H33.6964V203.46C33.6964 203.957 33.8058 204.4 34.0245 204.788C34.2433 205.172 34.5548 205.475 34.9592 205.697C35.3668 205.916 35.854 206.026 36.4208 206.026C36.9876 206.026 37.4748 205.916 37.8825 205.697C38.2901 205.475 38.6017 205.172 38.8171 204.788C39.0359 204.4 39.1452 203.957 39.1452 203.46V196.818ZM42.2836 197.912V196.818H49.9199V197.912H46.7182V207H45.4853V197.912H42.2836ZM62.4421 196.818H63.6751V203.56C63.6751 204.256 63.511 204.877 63.1829 205.424C62.8581 205.968 62.399 206.397 61.8058 206.712C61.2125 207.023 60.5165 207.179 59.7177 207.179C58.9189 207.179 58.2229 207.023 57.6296 206.712C57.0363 206.397 56.5756 205.968 56.2475 205.424C55.9227 204.877 55.7603 204.256 55.7603 203.56V196.818H56.9933V203.46C56.9933 203.957 57.1026 204.4 57.3214 204.788C57.5401 205.172 57.8517 205.475 58.256 205.697C58.6637 205.916 59.1509 206.026 59.7177 206.026C60.2844 206.026 60.7717 205.916 61.1793 205.697C61.587 205.475 61.8986 205.172 62.114 204.788C62.3327 204.4 62.4421 203.957 62.4421 203.46V196.818ZM71.7054 199.364C71.6458 198.86 71.4038 198.469 70.9796 198.19C70.5553 197.912 70.035 197.773 69.4185 197.773C68.9677 197.773 68.5733 197.846 68.2353 197.991C67.9005 198.137 67.6387 198.338 67.4498 198.593C67.2641 198.848 67.1713 199.138 67.1713 199.463C67.1713 199.735 67.236 199.969 67.3652 200.164C67.4978 200.356 67.6668 200.517 67.8723 200.646C68.0778 200.772 68.2933 200.877 68.5186 200.96C68.744 201.039 68.9512 201.104 69.1401 201.153L70.1742 201.432C70.4393 201.501 70.7343 201.598 71.0591 201.72C71.3873 201.843 71.7005 202.01 71.9988 202.222C72.3004 202.431 72.5489 202.7 72.7445 203.028C72.94 203.356 73.0378 203.759 73.0378 204.236C73.0378 204.786 72.8936 205.283 72.6053 205.727C72.3203 206.171 71.9026 206.524 71.3525 206.786C70.8056 207.048 70.141 207.179 69.3588 207.179C68.6297 207.179 67.9983 207.061 67.4647 206.826C66.9344 206.591 66.5167 206.263 66.2118 205.842C65.9102 205.421 65.7395 204.932 65.6998 204.375H66.9725C67.0056 204.759 67.1349 205.078 67.3603 205.33C67.589 205.578 67.8773 205.764 68.2253 205.886C68.5766 206.006 68.9545 206.065 69.3588 206.065C69.8295 206.065 70.2521 205.989 70.6266 205.837C71.0011 205.681 71.2978 205.465 71.5165 205.19C71.7353 204.912 71.8446 204.587 71.8446 204.216C71.8446 203.878 71.7502 203.603 71.5613 203.391C71.3723 203.179 71.1238 203.006 70.8155 202.874C70.5073 202.741 70.1742 202.625 69.8162 202.526L68.5634 202.168C67.7679 201.939 67.1382 201.612 66.6742 201.188C66.2102 200.764 65.9782 200.209 65.9782 199.523C65.9782 198.953 66.1323 198.455 66.4405 198.031C66.7521 197.604 67.1697 197.272 67.6934 197.037C68.2203 196.798 68.8087 196.679 69.4583 196.679C70.1145 196.679 70.6979 196.797 71.2083 197.032C71.7187 197.264 72.123 197.582 72.4213 197.987C72.723 198.391 72.882 198.85 72.8986 199.364H71.7054Z" fill="black"/>
<ellipse cx="207.5" cy="203.5" rx="38.5" ry="19.5" fill="#D9D9D9"/>
<ellipse cx="374" cy="202.5" rx="46" ry="19.5" fill="#D9D9D9"/>
<ellipse cx="516" cy="203.5" rx="49" ry="19.5" fill="#D9D9D9"/>
<ellipse cx="674.5" cy="203.5" rx="38.5" ry="19.5" fill="#D9D9D9"/>
<path d="M334.233 210V199.818H337.673C338.472 199.818 339.125 199.962 339.632 200.251C340.143 200.536 340.52 200.922 340.766 201.409C341.011 201.896 341.134 202.44 341.134 203.04C341.134 203.64 341.011 204.185 340.766 204.675C340.524 205.166 340.149 205.557 339.642 205.849C339.135 206.137 338.485 206.281 337.693 206.281H335.227V205.188H337.653C338.2 205.188 338.639 205.093 338.971 204.904C339.302 204.715 339.543 204.46 339.692 204.138C339.844 203.814 339.92 203.447 339.92 203.04C339.92 202.632 339.844 202.268 339.692 201.946C339.543 201.625 339.301 201.373 338.966 201.19C338.631 201.005 338.187 200.912 337.634 200.912H335.466V210H334.233ZM343.12 210V199.818H346.56C347.355 199.818 348.008 199.954 348.519 200.226C349.029 200.494 349.407 200.864 349.652 201.335C349.898 201.805 350.02 202.34 350.02 202.94C350.02 203.54 349.898 204.072 349.652 204.536C349.407 205 349.031 205.365 348.524 205.63C348.017 205.892 347.369 206.023 346.58 206.023H343.796V204.909H346.54C347.084 204.909 347.521 204.83 347.853 204.67C348.187 204.511 348.429 204.286 348.578 203.994C348.731 203.699 348.807 203.348 348.807 202.94C348.807 202.533 348.731 202.176 348.578 201.871C348.426 201.567 348.182 201.331 347.848 201.165C347.513 200.996 347.07 200.912 346.52 200.912H344.353V210H343.12ZM347.912 205.426L350.418 210H348.986L346.52 205.426H347.912ZM360.666 204.909C360.666 205.983 360.472 206.911 360.084 207.693C359.696 208.475 359.164 209.079 358.488 209.503C357.812 209.927 357.04 210.139 356.171 210.139C355.303 210.139 354.531 209.927 353.855 209.503C353.178 209.079 352.646 208.475 352.259 207.693C351.871 206.911 351.677 205.983 351.677 204.909C351.677 203.835 351.871 202.907 352.259 202.125C352.646 201.343 353.178 200.74 353.855 200.315C354.531 199.891 355.303 199.679 356.171 199.679C357.04 199.679 357.812 199.891 358.488 200.315C359.164 200.74 359.696 201.343 360.084 202.125C360.472 202.907 360.666 203.835 360.666 204.909ZM359.472 204.909C359.472 204.027 359.325 203.283 359.03 202.677C358.738 202.07 358.342 201.611 357.842 201.3C357.345 200.988 356.788 200.832 356.171 200.832C355.555 200.832 354.996 200.988 354.496 201.3C353.999 201.611 353.603 202.07 353.308 202.677C353.016 203.283 352.87 204.027 352.87 204.909C352.87 205.791 353.016 206.535 353.308 207.141C353.603 207.748 353.999 208.207 354.496 208.518C354.996 208.83 355.555 208.986 356.171 208.986C356.788 208.986 357.345 208.83 357.842 208.518C358.342 208.207 358.738 207.748 359.03 207.141C359.325 206.535 359.472 205.791 359.472 204.909ZM365.881 210H362.739V199.818H366.02C367.008 199.818 367.853 200.022 368.556 200.43C369.258 200.834 369.797 201.416 370.171 202.175C370.546 202.93 370.733 203.835 370.733 204.889C370.733 205.95 370.544 206.863 370.166 207.629C369.789 208.391 369.238 208.978 368.516 209.388C367.793 209.796 366.915 210 365.881 210ZM363.972 208.906H365.801C366.643 208.906 367.341 208.744 367.894 208.419C368.448 208.094 368.86 207.632 369.132 207.032C369.404 206.432 369.54 205.718 369.54 204.889C369.54 204.067 369.406 203.36 369.137 202.766C368.869 202.17 368.468 201.712 367.934 201.394C367.401 201.073 366.736 200.912 365.941 200.912H363.972V208.906ZM379.483 199.818H380.716V206.56C380.716 207.256 380.552 207.877 380.224 208.424C379.899 208.968 379.44 209.397 378.847 209.712C378.253 210.023 377.557 210.179 376.759 210.179C375.96 210.179 375.264 210.023 374.671 209.712C374.077 209.397 373.617 208.968 373.289 208.424C372.964 207.877 372.801 207.256 372.801 206.56V199.818H374.034V206.46C374.034 206.957 374.144 207.4 374.362 207.788C374.581 208.172 374.893 208.475 375.297 208.697C375.705 208.916 376.192 209.026 376.759 209.026C377.325 209.026 377.813 208.916 378.22 208.697C378.628 208.475 378.94 208.172 379.155 207.788C379.374 207.4 379.483 206.957 379.483 206.46V199.818ZM391.371 203H390.138C390.066 202.645 389.938 202.334 389.756 202.065C389.577 201.797 389.358 201.571 389.099 201.389C388.844 201.204 388.561 201.064 388.249 200.972C387.938 200.879 387.613 200.832 387.275 200.832C386.658 200.832 386.1 200.988 385.599 201.3C385.102 201.611 384.706 202.07 384.411 202.677C384.12 203.283 383.974 204.027 383.974 204.909C383.974 205.791 384.12 206.535 384.411 207.141C384.706 207.748 385.102 208.207 385.599 208.518C386.1 208.83 386.658 208.986 387.275 208.986C387.613 208.986 387.938 208.939 388.249 208.847C388.561 208.754 388.844 208.616 389.099 208.434C389.358 208.248 389.577 208.021 389.756 207.753C389.938 207.481 390.066 207.17 390.138 206.818H391.371C391.279 207.339 391.11 207.804 390.864 208.215C390.619 208.626 390.314 208.976 389.95 209.264C389.585 209.549 389.176 209.766 388.722 209.915C388.271 210.065 387.789 210.139 387.275 210.139C386.406 210.139 385.634 209.927 384.958 209.503C384.282 209.079 383.75 208.475 383.362 207.693C382.974 206.911 382.781 205.983 382.781 204.909C382.781 203.835 382.974 202.907 383.362 202.125C383.75 201.343 384.282 200.74 384.958 200.315C385.634 199.891 386.406 199.679 387.275 199.679C387.789 199.679 388.271 199.754 388.722 199.903C389.176 200.052 389.585 200.271 389.95 200.559C390.314 200.844 390.619 201.192 390.864 201.603C391.11 202.011 391.279 202.476 391.371 203ZM392.807 200.912V199.818H400.443V200.912H397.242V210H396.009V200.912H392.807ZM407.914 202.364C407.855 201.86 407.613 201.469 407.189 201.19C406.764 200.912 406.244 200.773 405.627 200.773C405.177 200.773 404.782 200.846 404.444 200.991C404.109 201.137 403.848 201.338 403.659 201.593C403.473 201.848 403.38 202.138 403.38 202.463C403.38 202.735 403.445 202.969 403.574 203.164C403.707 203.356 403.876 203.517 404.081 203.646C404.287 203.772 404.502 203.877 404.728 203.96C404.953 204.039 405.16 204.104 405.349 204.153L406.383 204.432C406.648 204.501 406.943 204.598 407.268 204.72C407.596 204.843 407.909 205.01 408.208 205.222C408.509 205.431 408.758 205.7 408.953 206.028C409.149 206.356 409.247 206.759 409.247 207.236C409.247 207.786 409.103 208.283 408.814 208.727C408.529 209.171 408.112 209.524 407.561 209.786C407.015 210.048 406.35 210.179 405.568 210.179C404.839 210.179 404.207 210.061 403.674 209.826C403.143 209.591 402.726 209.263 402.421 208.842C402.119 208.421 401.949 207.932 401.909 207.375H403.181C403.215 207.759 403.344 208.078 403.569 208.33C403.798 208.578 404.086 208.764 404.434 208.886C404.786 209.006 405.163 209.065 405.568 209.065C406.038 209.065 406.461 208.989 406.836 208.837C407.21 208.681 407.507 208.465 407.725 208.19C407.944 207.912 408.054 207.587 408.054 207.216C408.054 206.878 407.959 206.603 407.77 206.391C407.581 206.179 407.333 206.006 407.025 205.874C406.716 205.741 406.383 205.625 406.025 205.526L404.772 205.168C403.977 204.939 403.347 204.612 402.883 204.188C402.419 203.764 402.187 203.209 402.187 202.523C402.187 201.953 402.341 201.455 402.65 201.031C402.961 200.604 403.379 200.272 403.902 200.037C404.429 199.798 405.018 199.679 405.667 199.679C406.324 199.679 406.907 199.797 407.417 200.032C407.928 200.264 408.332 200.582 408.63 200.987C408.932 201.391 409.091 201.85 409.108 202.364H407.914Z" fill="black"/>
<path d="M483.426 200H482.193C482.12 199.645 481.993 199.334 481.81 199.065C481.631 198.797 481.413 198.571 481.154 198.389C480.899 198.204 480.616 198.064 480.304 197.972C479.992 197.879 479.668 197.832 479.33 197.832C478.713 197.832 478.155 197.988 477.654 198.3C477.157 198.611 476.761 199.07 476.466 199.677C476.174 200.283 476.028 201.027 476.028 201.909C476.028 202.791 476.174 203.535 476.466 204.141C476.761 204.748 477.157 205.207 477.654 205.518C478.155 205.83 478.713 205.986 479.33 205.986C479.668 205.986 479.992 205.939 480.304 205.847C480.616 205.754 480.899 205.616 481.154 205.434C481.413 205.248 481.631 205.021 481.81 204.753C481.993 204.481 482.12 204.17 482.193 203.818H483.426C483.333 204.339 483.164 204.804 482.919 205.215C482.674 205.626 482.369 205.976 482.004 206.264C481.64 206.549 481.23 206.766 480.776 206.915C480.326 207.065 479.843 207.139 479.33 207.139C478.461 207.139 477.689 206.927 477.013 206.503C476.337 206.079 475.805 205.475 475.417 204.693C475.029 203.911 474.835 202.983 474.835 201.909C474.835 200.835 475.029 199.907 475.417 199.125C475.805 198.343 476.337 197.74 477.013 197.315C477.689 196.891 478.461 196.679 479.33 196.679C479.843 196.679 480.326 196.754 480.776 196.903C481.23 197.052 481.64 197.271 482.004 197.559C482.369 197.844 482.674 198.192 482.919 198.603C483.164 199.011 483.333 199.476 483.426 200ZM494.009 201.909C494.009 202.983 493.816 203.911 493.428 204.693C493.04 205.475 492.508 206.079 491.832 206.503C491.156 206.927 490.383 207.139 489.515 207.139C488.647 207.139 487.874 206.927 487.198 206.503C486.522 206.079 485.99 205.475 485.602 204.693C485.215 203.911 485.021 202.983 485.021 201.909C485.021 200.835 485.215 199.907 485.602 199.125C485.99 198.343 486.522 197.74 487.198 197.315C487.874 196.891 488.647 196.679 489.515 196.679C490.383 196.679 491.156 196.891 491.832 197.315C492.508 197.74 493.04 198.343 493.428 199.125C493.816 199.907 494.009 200.835 494.009 201.909ZM492.816 201.909C492.816 201.027 492.669 200.283 492.374 199.677C492.082 199.07 491.686 198.611 491.186 198.3C490.688 197.988 490.132 197.832 489.515 197.832C488.899 197.832 488.34 197.988 487.84 198.3C487.343 198.611 486.946 199.07 486.651 199.677C486.36 200.283 486.214 201.027 486.214 201.909C486.214 202.791 486.36 203.535 486.651 204.141C486.946 204.748 487.343 205.207 487.84 205.518C488.34 205.83 488.899 205.986 489.515 205.986C490.132 205.986 490.688 205.83 491.186 205.518C491.686 205.207 492.082 204.748 492.374 204.141C492.669 203.535 492.816 202.791 492.816 201.909ZM504.156 196.818V207H502.963L497.415 199.006H497.316V207H496.083V196.818H497.276L502.844 204.832H502.943V196.818H504.156ZM506.067 197.912V196.818H513.703V197.912H510.501V207H509.268V197.912H506.067ZM514.834 207H513.542L517.28 196.818H518.553L522.292 207H520.999L517.956 198.429H517.877L514.834 207ZM515.311 203.023H520.522V204.116H515.311V203.023ZM531.592 200H530.359C530.286 199.645 530.159 199.334 529.976 199.065C529.797 198.797 529.579 198.571 529.32 198.389C529.065 198.204 528.782 198.064 528.47 197.972C528.158 197.879 527.834 197.832 527.496 197.832C526.879 197.832 526.321 197.988 525.82 198.3C525.323 198.611 524.927 199.07 524.632 199.677C524.34 200.283 524.194 201.027 524.194 201.909C524.194 202.791 524.34 203.535 524.632 204.141C524.927 204.748 525.323 205.207 525.82 205.518C526.321 205.83 526.879 205.986 527.496 205.986C527.834 205.986 528.158 205.939 528.47 205.847C528.782 205.754 529.065 205.616 529.32 205.434C529.579 205.248 529.797 205.021 529.976 204.753C530.159 204.481 530.286 204.17 530.359 203.818H531.592C531.499 204.339 531.33 204.804 531.085 205.215C530.84 205.626 530.535 205.976 530.17 206.264C529.806 206.549 529.396 206.766 528.942 206.915C528.492 207.065 528.009 207.139 527.496 207.139C526.627 207.139 525.855 206.927 525.179 206.503C524.503 206.079 523.971 205.475 523.583 204.693C523.195 203.911 523.001 202.983 523.001 201.909C523.001 200.835 523.195 199.907 523.583 199.125C523.971 198.343 524.503 197.74 525.179 197.315C525.855 196.891 526.627 196.679 527.496 196.679C528.009 196.679 528.492 196.754 528.942 196.903C529.396 197.052 529.806 197.271 530.17 197.559C530.535 197.844 530.84 198.192 531.085 198.603C531.33 199.011 531.499 199.476 531.592 200ZM533.028 197.912V196.818H540.664V197.912H537.462V207H536.229V197.912H533.028ZM553.186 196.818H554.419V203.56C554.419 204.256 554.255 204.877 553.927 205.424C553.602 205.968 553.143 206.397 552.55 206.712C551.957 207.023 551.261 207.179 550.462 207.179C549.663 207.179 548.967 207.023 548.374 206.712C547.78 206.397 547.32 205.968 546.992 205.424C546.667 204.877 546.504 204.256 546.504 203.56V196.818H547.737V203.46C547.737 203.957 547.847 204.4 548.066 204.788C548.284 205.172 548.596 205.475 549 205.697C549.408 205.916 549.895 206.026 550.462 206.026C551.029 206.026 551.516 205.916 551.923 205.697C552.331 205.475 552.643 205.172 552.858 204.788C553.077 204.4 553.186 203.957 553.186 203.46V196.818ZM562.45 199.364C562.39 198.86 562.148 198.469 561.724 198.19C561.299 197.912 560.779 197.773 560.163 197.773C559.712 197.773 559.317 197.846 558.979 197.991C558.645 198.137 558.383 198.338 558.194 198.593C558.008 198.848 557.915 199.138 557.915 199.463C557.915 199.735 557.98 199.969 558.109 200.164C558.242 200.356 558.411 200.517 558.616 200.646C558.822 200.772 559.037 200.877 559.263 200.96C559.488 201.039 559.695 201.104 559.884 201.153L560.918 201.432C561.183 201.501 561.478 201.598 561.803 201.72C562.131 201.843 562.445 202.01 562.743 202.222C563.045 202.431 563.293 202.7 563.489 203.028C563.684 203.356 563.782 203.759 563.782 204.236C563.782 204.786 563.638 205.283 563.349 205.727C563.064 206.171 562.647 206.524 562.097 206.786C561.55 207.048 560.885 207.179 560.103 207.179C559.374 207.179 558.742 207.061 558.209 206.826C557.679 206.591 557.261 206.263 556.956 205.842C556.654 205.421 556.484 204.932 556.444 204.375H557.717C557.75 204.759 557.879 205.078 558.104 205.33C558.333 205.578 558.621 205.764 558.969 205.886C559.321 206.006 559.699 206.065 560.103 206.065C560.574 206.065 560.996 205.989 561.371 205.837C561.745 205.681 562.042 205.465 562.261 205.19C562.479 204.912 562.589 204.587 562.589 204.216C562.589 203.878 562.494 203.603 562.305 203.391C562.116 203.179 561.868 203.006 561.56 202.874C561.251 202.741 560.918 202.625 560.56 202.526L559.308 202.168C558.512 201.939 557.882 201.612 557.418 201.188C556.954 200.764 556.722 200.209 556.722 199.523C556.722 198.953 556.876 198.455 557.185 198.031C557.496 197.604 557.914 197.272 558.438 197.037C558.964 196.798 559.553 196.679 560.202 196.679C560.859 196.679 561.442 196.797 561.952 197.032C562.463 197.264 562.867 197.582 563.165 197.987C563.467 198.391 563.626 198.85 563.643 199.364H562.45Z" fill="black"/>
<path d="M188.233 206V195.818H191.793C192.502 195.818 193.087 195.941 193.548 196.186C194.008 196.428 194.351 196.754 194.577 197.165C194.802 197.573 194.915 198.026 194.915 198.523C194.915 198.96 194.837 199.321 194.681 199.607C194.529 199.892 194.326 200.117 194.075 200.283C193.826 200.448 193.556 200.571 193.264 200.651V200.75C193.576 200.77 193.889 200.879 194.204 201.078C194.519 201.277 194.782 201.562 194.994 201.933C195.206 202.304 195.312 202.759 195.312 203.295C195.312 203.806 195.196 204.265 194.964 204.673C194.732 205.08 194.366 205.403 193.866 205.642C193.365 205.881 192.714 206 191.912 206H188.233ZM189.466 204.906H191.912C192.717 204.906 193.289 204.75 193.627 204.439C193.969 204.124 194.139 203.743 194.139 203.295C194.139 202.951 194.051 202.633 193.876 202.341C193.7 202.046 193.45 201.811 193.125 201.635C192.8 201.456 192.416 201.366 191.972 201.366H189.466V204.906ZM189.466 200.293H191.753C192.124 200.293 192.459 200.22 192.757 200.074C193.059 199.928 193.297 199.723 193.473 199.457C193.652 199.192 193.741 198.881 193.741 198.523C193.741 198.075 193.586 197.696 193.274 197.384C192.963 197.069 192.469 196.912 191.793 196.912H189.466V200.293ZM197.338 206V195.818H198.571V204.906H203.304V206H197.338ZM213.408 200.909C213.408 201.983 213.214 202.911 212.826 203.693C212.438 204.475 211.906 205.079 211.23 205.503C210.554 205.927 209.782 206.139 208.914 206.139C208.045 206.139 207.273 205.927 206.597 205.503C205.921 205.079 205.389 204.475 205.001 203.693C204.613 202.911 204.419 201.983 204.419 200.909C204.419 199.835 204.613 198.907 205.001 198.125C205.389 197.343 205.921 196.74 206.597 196.315C207.273 195.891 208.045 195.679 208.914 195.679C209.782 195.679 210.554 195.891 211.23 196.315C211.906 196.74 212.438 197.343 212.826 198.125C213.214 198.907 213.408 199.835 213.408 200.909ZM212.215 200.909C212.215 200.027 212.067 199.283 211.772 198.677C211.481 198.07 211.084 197.611 210.584 197.3C210.087 196.988 209.53 196.832 208.914 196.832C208.297 196.832 207.739 196.988 207.238 197.3C206.741 197.611 206.345 198.07 206.05 198.677C205.758 199.283 205.612 200.027 205.612 200.909C205.612 201.791 205.758 202.535 206.05 203.141C206.345 203.748 206.741 204.207 207.238 204.518C207.739 204.83 208.297 204.986 208.914 204.986C209.53 204.986 210.087 204.83 210.584 204.518C211.084 204.207 211.481 203.748 211.772 203.141C212.067 202.535 212.215 201.791 212.215 200.909ZM222.441 199C222.332 198.665 222.188 198.365 222.009 198.1C221.833 197.832 221.623 197.603 221.377 197.414C221.135 197.225 220.86 197.081 220.552 196.982C220.244 196.882 219.906 196.832 219.538 196.832C218.935 196.832 218.386 196.988 217.892 197.3C217.398 197.611 217.006 198.07 216.714 198.677C216.422 199.283 216.276 200.027 216.276 200.909C216.276 201.791 216.424 202.535 216.719 203.141C217.014 203.748 217.413 204.207 217.917 204.518C218.421 204.83 218.988 204.986 219.617 204.986C220.201 204.986 220.714 204.862 221.159 204.613C221.606 204.361 221.954 204.006 222.203 203.549C222.454 203.088 222.58 202.546 222.58 201.923L222.958 202.003H219.896V200.909H223.774V202.003C223.774 202.841 223.595 203.571 223.237 204.19C222.882 204.81 222.392 205.291 221.765 205.632C221.142 205.97 220.426 206.139 219.617 206.139C218.716 206.139 217.924 205.927 217.241 205.503C216.561 205.079 216.031 204.475 215.65 203.693C215.272 202.911 215.083 201.983 215.083 200.909C215.083 200.104 215.191 199.379 215.406 198.737C215.625 198.09 215.933 197.54 216.331 197.086C216.729 196.632 217.2 196.284 217.743 196.042C218.287 195.8 218.885 195.679 219.538 195.679C220.075 195.679 220.575 195.76 221.039 195.923C221.507 196.082 221.923 196.309 222.287 196.604C222.655 196.895 222.962 197.245 223.207 197.653C223.452 198.057 223.621 198.506 223.714 199H222.441Z" fill="black"/>
<path d="M647.233 207V196.818H648.466V205.906H653.199V207H647.233ZM663.302 201.909C663.302 202.983 663.108 203.911 662.721 204.693C662.333 205.475 661.801 206.079 661.125 206.503C660.449 206.927 659.676 207.139 658.808 207.139C657.94 207.139 657.167 206.927 656.491 206.503C655.815 206.079 655.283 205.475 654.895 204.693C654.508 203.911 654.314 202.983 654.314 201.909C654.314 200.835 654.508 199.907 654.895 199.125C655.283 198.343 655.815 197.74 656.491 197.315C657.167 196.891 657.94 196.679 658.808 196.679C659.676 196.679 660.449 196.891 661.125 197.315C661.801 197.74 662.333 198.343 662.721 199.125C663.108 199.907 663.302 200.835 663.302 201.909ZM662.109 201.909C662.109 201.027 661.962 200.283 661.667 199.677C661.375 199.07 660.979 198.611 660.479 198.3C659.981 197.988 659.425 197.832 658.808 197.832C658.192 197.832 657.633 197.988 657.133 198.3C656.635 198.611 656.239 199.07 655.944 199.677C655.653 200.283 655.507 201.027 655.507 201.909C655.507 202.791 655.653 203.535 655.944 204.141C656.239 204.748 656.635 205.207 657.133 205.518C657.633 205.83 658.192 205.986 658.808 205.986C659.425 205.986 659.981 205.83 660.479 205.518C660.979 205.207 661.375 204.748 661.667 204.141C661.962 203.535 662.109 202.791 662.109 201.909ZM672.336 200C672.226 199.665 672.082 199.365 671.903 199.1C671.728 198.832 671.517 198.603 671.272 198.414C671.03 198.225 670.755 198.081 670.447 197.982C670.138 197.882 669.8 197.832 669.432 197.832C668.829 197.832 668.281 197.988 667.787 198.3C667.293 198.611 666.9 199.07 666.608 199.677C666.317 200.283 666.171 201.027 666.171 201.909C666.171 202.791 666.318 203.535 666.613 204.141C666.908 204.748 667.308 205.207 667.812 205.518C668.315 205.83 668.882 205.986 669.512 205.986C670.095 205.986 670.609 205.862 671.053 205.613C671.501 205.361 671.849 205.006 672.097 204.549C672.349 204.088 672.475 203.546 672.475 202.923L672.853 203.003H669.79V201.909H673.668V203.003C673.668 203.841 673.489 204.571 673.131 205.19C672.777 205.81 672.286 206.291 671.66 206.632C671.037 206.97 670.321 207.139 669.512 207.139C668.61 207.139 667.818 206.927 667.135 206.503C666.456 206.079 665.926 205.475 665.545 204.693C665.167 203.911 664.978 202.983 664.978 201.909C664.978 201.104 665.086 200.379 665.301 199.737C665.52 199.09 665.828 198.54 666.226 198.086C666.623 197.632 667.094 197.284 667.638 197.042C668.181 196.8 668.779 196.679 669.432 196.679C669.969 196.679 670.47 196.76 670.934 196.923C671.401 197.082 671.817 197.309 672.182 197.604C672.55 197.895 672.856 198.245 673.101 198.653C673.347 199.057 673.516 199.506 673.608 200H672.336ZM677.013 196.818V207H675.78V196.818H677.013ZM687.559 196.818V207H686.366L680.817 199.006H680.718V207H679.485V196.818H680.678L686.246 204.832H686.346V196.818H687.559Z" fill="black"/>
<ellipse cx="211.5" cy="305.5" rx="48.5" ry="19.5" fill="#D9D9D9"/>
<path d="M170.233 311V300.818H173.793C174.502 300.818 175.087 300.941 175.548 301.186C176.008 301.428 176.351 301.754 176.577 302.165C176.802 302.573 176.915 303.026 176.915 303.523C176.915 303.96 176.837 304.321 176.681 304.607C176.529 304.892 176.326 305.117 176.075 305.283C175.826 305.448 175.556 305.571 175.264 305.651V305.75C175.576 305.77 175.889 305.879 176.204 306.078C176.519 306.277 176.782 306.562 176.994 306.933C177.206 307.304 177.312 307.759 177.312 308.295C177.312 308.806 177.196 309.265 176.964 309.673C176.732 310.08 176.366 310.403 175.866 310.642C175.365 310.881 174.714 311 173.912 311H170.233ZM171.466 309.906H173.912C174.717 309.906 175.289 309.75 175.627 309.439C175.969 309.124 176.139 308.743 176.139 308.295C176.139 307.951 176.051 307.633 175.876 307.341C175.7 307.046 175.45 306.811 175.125 306.635C174.8 306.456 174.416 306.366 173.972 306.366H171.466V309.906ZM171.466 305.293H173.753C174.124 305.293 174.459 305.22 174.757 305.074C175.059 304.928 175.297 304.723 175.473 304.457C175.652 304.192 175.741 303.881 175.741 303.523C175.741 303.075 175.586 302.696 175.274 302.384C174.963 302.069 174.469 301.912 173.793 301.912H171.466V305.293ZM179.338 311V300.818H180.571V309.906H185.304V311H179.338ZM195.408 305.909C195.408 306.983 195.214 307.911 194.826 308.693C194.438 309.475 193.906 310.079 193.23 310.503C192.554 310.927 191.782 311.139 190.914 311.139C190.045 311.139 189.273 310.927 188.597 310.503C187.921 310.079 187.389 309.475 187.001 308.693C186.613 307.911 186.419 306.983 186.419 305.909C186.419 304.835 186.613 303.907 187.001 303.125C187.389 302.343 187.921 301.74 188.597 301.315C189.273 300.891 190.045 300.679 190.914 300.679C191.782 300.679 192.554 300.891 193.23 301.315C193.906 301.74 194.438 302.343 194.826 303.125C195.214 303.907 195.408 304.835 195.408 305.909ZM194.215 305.909C194.215 305.027 194.067 304.283 193.772 303.677C193.481 303.07 193.084 302.611 192.584 302.3C192.087 301.988 191.53 301.832 190.914 301.832C190.297 301.832 189.739 301.988 189.238 302.3C188.741 302.611 188.345 303.07 188.05 303.677C187.758 304.283 187.612 305.027 187.612 305.909C187.612 306.791 187.758 307.535 188.05 308.141C188.345 308.748 188.741 309.207 189.238 309.518C189.739 309.83 190.297 309.986 190.914 309.986C191.53 309.986 192.087 309.83 192.584 309.518C193.084 309.207 193.481 308.748 193.772 308.141C194.067 307.535 194.215 306.791 194.215 305.909ZM204.441 304C204.332 303.665 204.188 303.365 204.009 303.1C203.833 302.832 203.623 302.603 203.377 302.414C203.135 302.225 202.86 302.081 202.552 301.982C202.244 301.882 201.906 301.832 201.538 301.832C200.935 301.832 200.386 301.988 199.892 302.3C199.398 302.611 199.006 303.07 198.714 303.677C198.422 304.283 198.276 305.027 198.276 305.909C198.276 306.791 198.424 307.535 198.719 308.141C199.014 308.748 199.413 309.207 199.917 309.518C200.421 309.83 200.988 309.986 201.617 309.986C202.201 309.986 202.714 309.862 203.159 309.613C203.606 309.361 203.954 309.006 204.203 308.549C204.454 308.088 204.58 307.546 204.58 306.923L204.958 307.003H201.896V305.909H205.774V307.003C205.774 307.841 205.595 308.571 205.237 309.19C204.882 309.81 204.392 310.291 203.765 310.632C203.142 310.97 202.426 311.139 201.617 311.139C200.716 311.139 199.924 310.927 199.241 310.503C198.561 310.079 198.031 309.475 197.65 308.693C197.272 307.911 197.083 306.983 197.083 305.909C197.083 305.104 197.191 304.379 197.406 303.737C197.625 303.09 197.933 302.54 198.331 302.086C198.729 301.632 199.2 301.284 199.743 301.042C200.287 300.8 200.885 300.679 201.538 300.679C202.075 300.679 202.575 300.76 203.039 300.923C203.507 301.082 203.923 301.309 204.287 301.604C204.655 301.895 204.962 302.245 205.207 302.653C205.452 303.057 205.621 303.506 205.714 304H204.441ZM214.965 311H211.823V300.818H215.104C216.092 300.818 216.937 301.022 217.64 301.43C218.342 301.834 218.881 302.416 219.255 303.175C219.63 303.93 219.817 304.835 219.817 305.889C219.817 306.95 219.628 307.863 219.25 308.629C218.873 309.391 218.322 309.978 217.6 310.388C216.877 310.796 215.999 311 214.965 311ZM213.056 309.906H214.885C215.727 309.906 216.425 309.744 216.978 309.419C217.532 309.094 217.944 308.632 218.216 308.032C218.488 307.432 218.624 306.718 218.624 305.889C218.624 305.067 218.49 304.36 218.221 303.766C217.953 303.17 217.552 302.712 217.018 302.394C216.484 302.073 215.82 301.912 215.025 301.912H213.056V309.906ZM221.885 311V300.818H228.03V301.912H223.118V305.352H227.712V306.446H223.118V309.906H228.11V311H221.885ZM229.696 301.912V300.818H237.332V301.912H234.13V311H232.897V301.912H229.696ZM238.463 311H237.17L240.909 300.818H242.182L245.92 311H244.628L241.585 302.429H241.506L238.463 311ZM238.94 307.023H244.151V308.116H238.94V307.023ZM248.739 300.818V311H247.506V300.818H248.739ZM251.211 311V300.818H252.444V309.906H257.177V311H251.211Z" fill="black"/>
</svg>
